<svg width="41" height="39" viewBox="0 0 41 39" fill="none" xmlns="http://www.w3.org/2000/svg">
<path d="M32.8751 4C32.9994 2.7508 32.9994 1.6258 32.9994 0.25H8.00096C8.00096 1.6258 8.00096 2.7508 8.12518 4H0.500977V5.2492C0.500977 16.375 14.6268 24.25 18.0018 25.9984L17.9994 30.2499C17.9994 32.3757 16.3752 33.9999 14.2494 33.9999H11.7486V38.9991H29.2494V33.9999H26.7486C24.6228 33.9999 22.9986 32.3757 22.9986 30.2499V26.0007C26.3736 24.2499 40.4994 16.3749 40.4994 5.25154V4.00234L32.8751 4ZM3.12594 6.5008H8.37594C8.87516 12.1258 10.2509 16.1266 11.7509 19C7.75014 15.8758 3.62514 11.5 3.12594 6.5008ZM29.3759 19C30.8759 16.1242 32.2517 12.1258 32.7509 6.5008H38.0009C37.3751 11.5 33.2501 15.8758 29.3759 19Z" fill="#F57059"/>
</svg>
