<svg width="41" height="40" viewBox="0 0 41 40" fill="none" xmlns="http://www.w3.org/2000/svg">
<path d="M1.75019 18.7508C1.62598 18.7508 1.37519 18.7508 1.25098 18.875C0.749413 18.9992 0.500977 19.5008 0.500977 20V28.7492C0.500977 34.3742 6.12597 39.9992 11.751 39.9992H15.501V32L2.62438 19.1258C2.37594 18.875 2.12516 18.7508 1.75018 18.7508L1.75019 18.7508Z" fill="#F57059"/>
<path d="M39.7495 18.875C39.6252 18.7508 39.3745 18.7508 39.2502 18.7508C38.8752 18.7508 38.6244 18.875 38.376 19.1258L23.001 34.5008V22.25C39.126 19.8758 30.3768 0.750786 30.3768 0.750786C30.2503 0.375786 29.751 0.000785828 29.2495 0.000785828C28.7503 0.000785828 28.2487 0.375785 28.1245 0.874985L24.8737 6.62419L21.6229 0.874985C21.501 0.375767 20.9994 0.000785828 20.5002 0.000785828C20.001 0.000785828 19.4994 0.375785 19.3752 0.874985L16.1244 6.62419L12.8736 0.874985C12.7494 0.375767 12.2502 0.000785828 11.751 0.000785828C11.2518 0.000785828 10.7502 0.375785 10.626 0.874985C10.626 0.874985 1.87678 20 18.0018 22.3742L17.9994 39.9992H29.2494C34.8744 39.9992 40.4994 34.3742 40.4994 28.7492V20C40.4994 19.5008 40.251 18.9992 39.7494 18.875L39.7495 18.875Z" fill="#F57059"/>
</svg>
