<svg width="43" height="44" viewBox="0 0 43 44" fill="none" xmlns="http://www.w3.org/2000/svg">
<path d="M39.8748 32.6242L35.3748 25.75V25.6258L42.7506 22L35.3748 18.3742V18.25L39.8748 11.3758L31.6248 11.875L32.124 3.62498L25.2498 8.12498H25.1256L21.4998 0.749184L17.874 8.12498H17.7498L10.8756 3.62498L11.3748 11.875L3.12482 11.3758L7.62482 18.25V18.3742L0.249023 22L7.62482 25.6258V25.75L3.12482 32.6242L11.3748 32.125L10.8756 40.375L17.7498 35.875H17.874L21.4998 43.2508L25.1256 35.875H25.2498L32.124 40.375L31.6248 32.125L39.8748 32.6242ZM21.4998 32.0007C15.999 32.0007 11.499 27.5007 11.499 21.9999C11.499 16.4991 15.999 11.9991 21.4998 11.9991C27.0006 11.9991 31.5006 16.4991 31.5006 21.9999C31.5006 27.5007 27.0006 32.0007 21.4998 32.0007Z" fill="#F57059"/>
<path d="M21.5 14.5C17.375 14.5 14 17.875 14 22C14 26.125 17.375 29.5 21.5 29.5C25.625 29.5 29 26.125 29 22C29 17.875 25.625 14.5 21.5 14.5Z" fill="#F57059"/>
</svg>
